<?xml version="1.0" encoding="UTF-8"?>
<svg width="220px" height="145px" viewBox="0 0 220 145" version="1.1" xmlns="http://www.w3.org/2000/svg" xmlns:xlink="http://www.w3.org/1999/xlink">
    <!-- Generator: Sketch 46.2 (44496) - http://www.bohemiancoding.com/sketch -->
    <title>event_220</title>
    <desc>Created with Sketch.</desc>
    <defs></defs>
    <g id="Layout-Thumbnails" stroke="none" stroke-width="1" fill="none" fill-rule="evenodd">
        <g id="event_220">
            <rect id="Rectangle-2" fill="#F7F7F7" x="0" y="36" width="220" height="73"></rect>
            <g id="First" transform="translate(10.000000, 46.000000)">
                <rect id="Rectangle-2" fill="#D8D8D8" x="0" y="0" width="63" height="53"></rect>
                <g id="Button" transform="translate(3.000000, 33.000000)">
                    <rect id="Rectangle" fill="#FFFFFF" x="0" y="0" width="18" height="6"></rect>
                    <rect id="Rectangle" fill="#D8D8D8" x="1" y="1" width="16" height="4"></rect>
                </g>
                <rect id="Rectangle-3" fill="#FFFFFF" x="3" y="9" width="38" height="4"></rect>
                <rect id="Rectangle-4" fill="#FFFFFF" x="3" y="17" width="56" height="2"></rect>
                <rect id="Rectangle-4" fill="#FFFFFF" x="3" y="21" width="56" height="2"></rect>
                <rect id="Rectangle-4" fill="#FFFFFF" x="3" y="25" width="56" height="2"></rect>
            </g>
            <g id="First" transform="translate(79.000000, 46.000000)">
                <rect id="Rectangle-2" fill="#D8D8D8" x="0" y="0" width="63" height="53"></rect>
                <g id="Button" transform="translate(3.000000, 33.000000)">
                    <rect id="Rectangle" fill="#FFFFFF" x="0" y="0" width="18" height="6"></rect>
                    <rect id="Rectangle" fill="#D8D8D8" x="1" y="1" width="16" height="4"></rect>
                </g>
                <rect id="Rectangle-3" fill="#FFFFFF" x="3" y="9" width="38" height="4"></rect>
                <rect id="Rectangle-4" fill="#FFFFFF" x="3" y="17" width="56" height="2"></rect>
                <rect id="Rectangle-4" fill="#FFFFFF" x="3" y="21" width="56" height="2"></rect>
                <rect id="Rectangle-4" fill="#FFFFFF" x="3" y="25" width="56" height="2"></rect>
            </g>
            <g id="First" transform="translate(147.000000, 46.000000)">
                <rect id="Rectangle-2" fill="#D8D8D8" x="0" y="0" width="63" height="53"></rect>
                <g id="Button" transform="translate(3.000000, 33.000000)">
                    <rect id="Rectangle" fill="#FFFFFF" x="0" y="0" width="18" height="6"></rect>
                    <rect id="Rectangle" fill="#D8D8D8" x="1" y="1" width="16" height="4"></rect>
                </g>
                <rect id="Rectangle-3" fill="#FFFFFF" x="3" y="9" width="38" height="4"></rect>
                <rect id="Rectangle-4" fill="#FFFFFF" x="3" y="17" width="56" height="2"></rect>
                <rect id="Rectangle-4" fill="#FFFFFF" x="3" y="21" width="56" height="2"></rect>
                <rect id="Rectangle-4" fill="#FFFFFF" x="3" y="25" width="56" height="2"></rect>
            </g>
        </g>
    </g>
</svg>