<?xml version="1.0" encoding="UTF-8"?>
<svg width="38px" height="38px" viewBox="0 0 38 38" version="1.1" xmlns="http://www.w3.org/2000/svg" xmlns:xlink="http://www.w3.org/1999/xlink">
    <!-- Generator: Sketch 47.1 (45422) - http://www.bohemiancoding.com/sketch -->
    <title>icn/account</title>
    <desc>Created with Sketch.</desc>
    <defs>
        <path d="M14.6108578,7.61093718 C12.4630474,9.75896542 12.4630474,13.2412573 14.6107144,15.3891422 C16.7587427,17.5369526 20.2410346,17.5369526 22.3889911,15.3892139 C24.537003,13.241202 24.537003,9.75902072 22.3889911,7.61100888 C20.2409793,5.46299704 16.758798,5.46299704 14.6108578,7.61093718 Z M23.8032047,6.19679532 C26.7322651,9.12585574 26.7322651,13.874367 23.8032047,16.8034274 C20.8741443,19.7321909 16.125633,19.7321909 13.1965726,16.8034274 C10.2678091,13.874367 10.2678091,9.12585574 13.1965726,6.19679532 C16.125633,3.26773489 20.8741443,3.26773489 23.8032047,6.19679532 Z M2,34 L0,34 C0,30.7918503 0.310241794,28.5389467 1.35303156,26.4932869 C2.82368283,23.6082834 5.55223552,22 9.68045723,22 L27.2361381,22 C32.84496,22 37,27.1156295 37,34 L35,34 C35,28.1392175 31.6380257,24 27.2361381,24 L9.68045723,24 C3.69548238,24 2,27.3260588 2,34 Z" id="path-acc"></path>
    </defs>
    <g id="Symbols" stroke="none" stroke-width="1" fill="none" fill-rule="evenodd">
        <g id="icn/account">
            <use id="MaskAcc" fill="#232323" fill-rule="nonzero" xlink:href="#path-acc"></use>
        </g>
    </g>
</svg>
