<?xml version="1.0" encoding="UTF-8"?>
<svg width="220px" height="145px" viewBox="0 0 220 145" version="1.1" xmlns="http://www.w3.org/2000/svg" xmlns:xlink="http://www.w3.org/1999/xlink">
    <!-- Generator: Sketch 46.2 (44496) - http://www.bohemiancoding.com/sketch -->
    <title>article_220</title>
    <desc>Created with Sketch.</desc>
    <defs></defs>
    <g id="Layout-Thumbnails" stroke="none" stroke-width="1" fill="none" fill-rule="evenodd">
        <g id="article_220">
            <rect id="Rectangle-2" fill="#F7F7F7" x="43" y="0" width="136" height="145"></rect>
            <rect id="Rectangle-3" fill="#D8D8D8" x="53" y="51" width="38" height="6"></rect>
            <rect id="Rectangle-4" fill="#D8D8D8" x="53" y="67" width="116" height="4"></rect>
            <rect id="Rectangle-4" fill="#D8D8D8" x="53" y="74" width="116" height="4"></rect>
            <rect id="Rectangle-4" fill="#D8D8D8" x="53" y="81" width="116" height="4"></rect>
            <rect id="Rectangle-4" fill="#D8D8D8" x="53" y="124" width="116" height="4"></rect>
            <rect id="Rectangle-4" fill="#D8D8D8" x="53" y="131" width="116" height="4"></rect>
            <rect id="Rectangle-4" fill="#D8D8D8" x="53" y="88" width="60" height="4"></rect>
            <rect id="Rectangle-4" fill="#D8D8D8" x="53" y="95" width="60" height="4"></rect>
            <rect id="Rectangle-4" fill="#D8D8D8" x="53" y="102" width="60" height="4"></rect>
            <rect id="Rectangle-4" fill="#D8D8D8" x="53" y="109" width="60" height="4"></rect>
            <rect id="Rectangle-4" fill="#D8D8D8" x="53" y="116" width="60" height="4"></rect>
            <g id="List-Item" transform="translate(53.000000, 10.000000)" fill="#D8D8D8">
                <rect id="Rectangle-2" x="0" y="0" width="116" height="31"></rect>
            </g>
            <g id="Image" transform="translate(101.000000, 16.000000)" fill-rule="nonzero" fill="#FFFFFF">
                <circle id="Oval" cx="14" cy="5" r="3"></circle>
                <polygon id="Shape" points="18 14 15 10 12 13 6 7 2 11 2 18 18 18"></polygon>
                <path d="M19,1 L19,19 L1,19 L1,1 L19,1 L19,1 Z M20,0 L0,0 L0,20 L20,20 L20,0 Z" id="Shape"></path>
            </g>
            <g id="List-Item" transform="translate(123.000000, 89.000000)" fill="#D8D8D8">
                <rect id="Rectangle-2" x="0" y="0" width="46" height="31"></rect>
            </g>
            <g id="Image" transform="translate(136.000000, 95.000000)" fill-rule="nonzero" fill="#FFFFFF">
                <circle id="Oval" cx="14" cy="5" r="3"></circle>
                <polygon id="Shape" points="18 14 15 10 12 13 6 7 2 11 2 18 18 18"></polygon>
                <path d="M19,1 L19,19 L1,19 L1,1 L19,1 L19,1 Z M20,0 L0,0 L0,20 L20,20 L20,0 Z" id="Shape"></path>
            </g>
        </g>
    </g>
</svg>