<?xml version="1.0" encoding="UTF-8"?>
<svg width="220px" height="145px" viewBox="0 0 220 145" version="1.1" xmlns="http://www.w3.org/2000/svg" xmlns:xlink="http://www.w3.org/1999/xlink">
    <!-- Generator: Sketch 46.2 (44496) - http://www.bohemiancoding.com/sketch -->
    <title>feature_220</title>
    <desc>Created with Sketch.</desc>
    <defs></defs>
    <g id="Layout-Thumbnails" stroke="none" stroke-width="1" fill="none" fill-rule="evenodd">
        <g id="feature_220">
            <rect id="Rectangle-2" fill="#F7F7F7" x="0" y="23" width="220" height="100"></rect>
            <g id="First" transform="translate(10.000000, 33.000000)" fill="#D8D8D8">
                <rect id="Rectangle-2" x="0" y="0" width="73.3300018" height="80"></rect>
            </g>
            <g id="Image" transform="translate(31.000000, 57.000000)" fill-rule="nonzero" fill="#FFFFFF">
                <circle id="Oval" cx="23" cy="8" r="5"></circle>
                <polygon id="Shape" points="29 22.4545455 24.125 15.9090909 19.25 20.8181818 9.5 11 3 17.5454545 3 29 29 29"></polygon>
                <path d="M30.4,1.6 L30.4,30.4 L1.6,30.4 L1.6,1.6 L30.4,1.6 L30.4,1.6 Z M32,0 L0,0 L0,32 L32,32 L32,0 Z" id="Shape"></path>
            </g>
            <rect id="Rectangle-4" fill="#D8D8D8" x="102" y="68" width="106" height="4"></rect>
            <rect id="Rectangle-4" fill="#D8D8D8" x="102" y="75" width="106" height="4"></rect>
            <g id="First" transform="translate(102.000000, 51.000000)">
                <g id="Button" transform="translate(0.000000, 34.000000)" stroke="#D8D8D8">
                    <rect id="Rectangle" x="0.5" y="0.5" width="24" height="8"></rect>
                </g>
                <rect id="Rectangle-3" fill="#D8D8D8" x="0" y="0" width="70" height="6"></rect>
                <rect id="Rectangle-4" fill="#D8D8D8" x="0" y="10" width="106" height="4"></rect>
            </g>
        </g>
    </g>
</svg>