<?xml version="1.0" encoding="UTF-8"?>
<svg width="220px" height="145px" viewBox="0 0 220 145" version="1.1" xmlns="http://www.w3.org/2000/svg" xmlns:xlink="http://www.w3.org/1999/xlink">
    <!-- Generator: Sketch 46.2 (44496) - http://www.bohemiancoding.com/sketch -->
    <title>list-gallery_220</title>
    <desc>Created with Sketch.</desc>
    <defs></defs>
    <g id="Layout-Thumbnails" stroke="none" stroke-width="1" fill="none" fill-rule="evenodd">
        <g id="list-gallery_220">
            <rect id="Rectangle-2" fill="#F7F7F7" x="0" y="0" width="220" height="145"></rect>
            <g id="Card-List-Item" transform="translate(5.000000, 5.000000)">
                <rect id="Rectangle-2" fill="#D8D8D8" x="0" y="0" width="48.75" height="41.5999985"></rect>
                <g id="Image" transform="translate(14.000000, 10.000000)" fill-rule="nonzero" fill="#FFFFFF">
                    <circle id="Oval" cx="14" cy="5" r="3"></circle>
                    <polygon id="Shape" points="18 14 15 10 12 13 6 7 2 11 2 18 18 18"></polygon>
                    <path d="M19,1 L19,19 L1,19 L1,1 L19,1 L19,1 Z M20,0 L0,0 L0,20 L20,20 L20,0 Z" id="Shape"></path>
                </g>
                <rect id="Rectangle" fill="#FFFFFF" x="3" y="34" width="43" height="2"></rect>
                <rect id="Rectangle" fill="#FFFFFF" x="3" y="37" width="14" height="2"></rect>
            </g>
            <g id="Card-List-Item" transform="translate(59.000000, 5.000000)">
                <rect id="Rectangle-2" fill="#D8D8D8" x="0" y="0" width="48.75" height="41.5999985"></rect>
                <g id="Image" transform="translate(14.000000, 10.000000)" fill-rule="nonzero" fill="#FFFFFF">
                    <circle id="Oval" cx="14" cy="5" r="3"></circle>
                    <polygon id="Shape" points="18 14 15 10 12 13 6 7 2 11 2 18 18 18"></polygon>
                    <path d="M19,1 L19,19 L1,19 L1,1 L19,1 L19,1 Z M20,0 L0,0 L0,20 L20,20 L20,0 Z" id="Shape"></path>
                </g>
                <rect id="Rectangle" fill="#FFFFFF" x="3" y="34" width="43" height="2"></rect>
                <rect id="Rectangle" fill="#FFFFFF" x="3" y="37" width="14" height="2"></rect>
            </g>
            <g id="Card-List-Item" transform="translate(113.000000, 5.000000)">
                <rect id="Rectangle-2" fill="#D8D8D8" x="0" y="0" width="48.75" height="41.5999985"></rect>
                <g id="Image" transform="translate(14.000000, 10.000000)" fill-rule="nonzero" fill="#FFFFFF">
                    <circle id="Oval" cx="14" cy="5" r="3"></circle>
                    <polygon id="Shape" points="18 14 15 10 12 13 6 7 2 11 2 18 18 18"></polygon>
                    <path d="M19,1 L19,19 L1,19 L1,1 L19,1 L19,1 Z M20,0 L0,0 L0,20 L20,20 L20,0 Z" id="Shape"></path>
                </g>
                <rect id="Rectangle" fill="#FFFFFF" x="3" y="34" width="43" height="2"></rect>
                <rect id="Rectangle" fill="#FFFFFF" x="3" y="37" width="14" height="2"></rect>
            </g>
            <g id="Card-List-Item" transform="translate(167.000000, 5.000000)">
                <rect id="Rectangle-2" fill="#D8D8D8" x="0" y="0" width="48.75" height="41.5999985"></rect>
                <g id="Image" transform="translate(14.000000, 10.000000)" fill-rule="nonzero" fill="#FFFFFF">
                    <circle id="Oval" cx="14" cy="5" r="3"></circle>
                    <polygon id="Shape" points="18 14 15 10 12 13 6 7 2 11 2 18 18 18"></polygon>
                    <path d="M19,1 L19,19 L1,19 L1,1 L19,1 L19,1 Z M20,0 L0,0 L0,20 L20,20 L20,0 Z" id="Shape"></path>
                </g>
                <rect id="Rectangle" fill="#FFFFFF" x="3" y="34" width="43" height="2"></rect>
                <rect id="Rectangle" fill="#FFFFFF" x="3" y="37" width="14" height="2"></rect>
            </g>
            <g id="Card-List-Item" transform="translate(5.000000, 52.000000)">
                <rect id="Rectangle-2" fill="#D8D8D8" x="0" y="0" width="48.75" height="41.5999985"></rect>
                <g id="Image" transform="translate(14.000000, 10.000000)" fill-rule="nonzero" fill="#FFFFFF">
                    <circle id="Oval" cx="14" cy="5" r="3"></circle>
                    <polygon id="Shape" points="18 14 15 10 12 13 6 7 2 11 2 18 18 18"></polygon>
                    <path d="M19,1 L19,19 L1,19 L1,1 L19,1 L19,1 Z M20,0 L0,0 L0,20 L20,20 L20,0 Z" id="Shape"></path>
                </g>
                <rect id="Rectangle" fill="#FFFFFF" x="3" y="34" width="43" height="2"></rect>
                <rect id="Rectangle" fill="#FFFFFF" x="3" y="37" width="14" height="2"></rect>
            </g>
            <g id="Card-List-Item" transform="translate(59.000000, 52.000000)">
                <rect id="Rectangle-2" fill="#D8D8D8" x="0" y="0" width="48.75" height="41.5999985"></rect>
                <g id="Image" transform="translate(14.000000, 10.000000)" fill-rule="nonzero" fill="#FFFFFF">
                    <circle id="Oval" cx="14" cy="5" r="3"></circle>
                    <polygon id="Shape" points="18 14 15 10 12 13 6 7 2 11 2 18 18 18"></polygon>
                    <path d="M19,1 L19,19 L1,19 L1,1 L19,1 L19,1 Z M20,0 L0,0 L0,20 L20,20 L20,0 Z" id="Shape"></path>
                </g>
                <rect id="Rectangle" fill="#FFFFFF" x="3" y="34" width="43" height="2"></rect>
                <rect id="Rectangle" fill="#FFFFFF" x="3" y="37" width="14" height="2"></rect>
            </g>
            <g id="Card-List-Item" transform="translate(113.000000, 52.000000)">
                <rect id="Rectangle-2" fill="#D8D8D8" x="0" y="0" width="48.75" height="41.5999985"></rect>
                <g id="Image" transform="translate(14.000000, 10.000000)" fill-rule="nonzero" fill="#FFFFFF">
                    <circle id="Oval" cx="14" cy="5" r="3"></circle>
                    <polygon id="Shape" points="18 14 15 10 12 13 6 7 2 11 2 18 18 18"></polygon>
                    <path d="M19,1 L19,19 L1,19 L1,1 L19,1 L19,1 Z M20,0 L0,0 L0,20 L20,20 L20,0 Z" id="Shape"></path>
                </g>
                <rect id="Rectangle" fill="#FFFFFF" x="3" y="34" width="43" height="2"></rect>
                <rect id="Rectangle" fill="#FFFFFF" x="3" y="37" width="14" height="2"></rect>
            </g>
            <g id="Card-List-Item" transform="translate(167.000000, 52.000000)">
                <rect id="Rectangle-2" fill="#D8D8D8" x="0" y="0" width="48.75" height="41.5999985"></rect>
                <g id="Image" transform="translate(14.000000, 10.000000)" fill-rule="nonzero" fill="#FFFFFF">
                    <circle id="Oval" cx="14" cy="5" r="3"></circle>
                    <polygon id="Shape" points="18 14 15 10 12 13 6 7 2 11 2 18 18 18"></polygon>
                    <path d="M19,1 L19,19 L1,19 L1,1 L19,1 L19,1 Z M20,0 L0,0 L0,20 L20,20 L20,0 Z" id="Shape"></path>
                </g>
                <rect id="Rectangle" fill="#FFFFFF" x="3" y="34" width="43" height="2"></rect>
                <rect id="Rectangle" fill="#FFFFFF" x="3" y="37" width="14" height="2"></rect>
            </g>
            <g id="Card-List-Item" transform="translate(5.000000, 99.000000)">
                <rect id="Rectangle-2" fill="#D8D8D8" x="0" y="0" width="48.75" height="41.5999985"></rect>
                <g id="Image" transform="translate(14.000000, 10.000000)" fill-rule="nonzero" fill="#FFFFFF">
                    <circle id="Oval" cx="14" cy="5" r="3"></circle>
                    <polygon id="Shape" points="18 14 15 10 12 13 6 7 2 11 2 18 18 18"></polygon>
                    <path d="M19,1 L19,19 L1,19 L1,1 L19,1 L19,1 Z M20,0 L0,0 L0,20 L20,20 L20,0 Z" id="Shape"></path>
                </g>
                <rect id="Rectangle" fill="#FFFFFF" x="3" y="34" width="43" height="2"></rect>
                <rect id="Rectangle" fill="#FFFFFF" x="3" y="37" width="14" height="2"></rect>
            </g>
            <g id="Card-List-Item" transform="translate(59.000000, 99.000000)">
                <rect id="Rectangle-2" fill="#D8D8D8" x="0" y="0" width="48.75" height="41.5999985"></rect>
                <g id="Image" transform="translate(14.000000, 10.000000)" fill-rule="nonzero" fill="#FFFFFF">
                    <circle id="Oval" cx="14" cy="5" r="3"></circle>
                    <polygon id="Shape" points="18 14 15 10 12 13 6 7 2 11 2 18 18 18"></polygon>
                    <path d="M19,1 L19,19 L1,19 L1,1 L19,1 L19,1 Z M20,0 L0,0 L0,20 L20,20 L20,0 Z" id="Shape"></path>
                </g>
                <rect id="Rectangle" fill="#FFFFFF" x="3" y="34" width="43" height="2"></rect>
                <rect id="Rectangle" fill="#FFFFFF" x="3" y="37" width="14" height="2"></rect>
            </g>
            <g id="Card-List-Item" transform="translate(113.000000, 99.000000)">
                <rect id="Rectangle-2" fill="#D8D8D8" x="0" y="0" width="48.75" height="41.5999985"></rect>
                <g id="Image" transform="translate(14.000000, 10.000000)" fill-rule="nonzero" fill="#FFFFFF">
                    <circle id="Oval" cx="14" cy="5" r="3"></circle>
                    <polygon id="Shape" points="18 14 15 10 12 13 6 7 2 11 2 18 18 18"></polygon>
                    <path d="M19,1 L19,19 L1,19 L1,1 L19,1 L19,1 Z M20,0 L0,0 L0,20 L20,20 L20,0 Z" id="Shape"></path>
                </g>
                <rect id="Rectangle" fill="#FFFFFF" x="3" y="34" width="43" height="2"></rect>
                <rect id="Rectangle" fill="#FFFFFF" x="3" y="37" width="14" height="2"></rect>
            </g>
            <g id="Card-List-Item" transform="translate(167.000000, 99.000000)">
                <rect id="Rectangle-2" fill="#D8D8D8" x="0" y="0" width="48.75" height="41.5999985"></rect>
                <g id="Image" transform="translate(14.000000, 10.000000)" fill-rule="nonzero" fill="#FFFFFF">
                    <circle id="Oval" cx="14" cy="5" r="3"></circle>
                    <polygon id="Shape" points="18 14 15 10 12 13 6 7 2 11 2 18 18 18"></polygon>
                    <path d="M19,1 L19,19 L1,19 L1,1 L19,1 L19,1 Z M20,0 L0,0 L0,20 L20,20 L20,0 Z" id="Shape"></path>
                </g>
                <rect id="Rectangle" fill="#FFFFFF" x="3" y="34" width="43" height="2"></rect>
                <rect id="Rectangle" fill="#FFFFFF" x="3" y="37" width="14" height="2"></rect>
            </g>
        </g>
    </g>
</svg>